<mxfile host="app.diagrams.net" agent="Mozilla/5.0 (Macintosh; Intel Mac OS X 10_15_7) AppleWebKit/537.36 (KHTML, like Gecko) Chrome/134.0.0.0 Safari/537.36" version="26.1.1">
  <diagram name="Page-1" id="D90KpyahNRj6Ks0JmKAd">
    <mxGraphModel dx="1024" dy="568" grid="1" gridSize="10" guides="1" tooltips="1" connect="1" arrows="1" fold="1" page="1" pageScale="1" pageWidth="827" pageHeight="1169" math="0" shadow="0">
      <root>
        <mxCell id="0" />
        <mxCell id="1" parent="0" />
        <mxCell id="BHEHNerM98xJAAAJmL-u-1" value="" style="shape=table;startSize=0;container=1;collapsible=0;childLayout=tableLayout;fontSize=16;rowLines=0;columnLines=0;swimlaneHead=1;fontFamily=Lucida Console;left=0;right=0;strokeWidth=2;" vertex="1" parent="1">
          <mxGeometry x="40" y="40" width="630.0000000000002" height="190" as="geometry" />
        </mxCell>
        <mxCell id="BHEHNerM98xJAAAJmL-u-2" value="" style="shape=tableRow;horizontal=0;startSize=0;swimlaneHead=0;swimlaneBody=0;strokeColor=inherit;top=0;left=0;bottom=0;right=0;collapsible=0;dropTarget=0;fillColor=none;points=[[0,0.5],[1,0.5]];portConstraint=eastwest;fontSize=16;fontFamily=Lucida Console;strokeWidth=2;" vertex="1" parent="BHEHNerM98xJAAAJmL-u-1">
          <mxGeometry width="630.0000000000002" height="40" as="geometry" />
        </mxCell>
        <mxCell id="BHEHNerM98xJAAAJmL-u-3" value="" style="shape=partialRectangle;html=1;whiteSpace=wrap;connectable=0;strokeColor=inherit;overflow=hidden;fillColor=none;top=0;left=0;bottom=1;right=0;pointerEvents=1;fontSize=16;fontFamily=Lucida Console;strokeWidth=2;" vertex="1" parent="BHEHNerM98xJAAAJmL-u-2">
          <mxGeometry width="100" height="40" as="geometry">
            <mxRectangle width="100" height="40" as="alternateBounds" />
          </mxGeometry>
        </mxCell>
        <mxCell id="BHEHNerM98xJAAAJmL-u-6" value="..." style="shape=partialRectangle;html=1;whiteSpace=wrap;connectable=0;strokeColor=inherit;overflow=hidden;fillColor=none;top=0;left=0;bottom=1;right=0;pointerEvents=1;fontSize=16;fontFamily=Lucida Console;strokeWidth=2;" vertex="1" parent="BHEHNerM98xJAAAJmL-u-2">
          <mxGeometry x="100" width="40" height="40" as="geometry">
            <mxRectangle width="40" height="40" as="alternateBounds" />
          </mxGeometry>
        </mxCell>
        <mxCell id="BHEHNerM98xJAAAJmL-u-7" value="Product Label 1" style="shape=partialRectangle;html=1;whiteSpace=wrap;connectable=0;strokeColor=inherit;overflow=hidden;fillColor=none;top=0;left=0;bottom=1;right=0;pointerEvents=1;fontSize=16;fontFamily=Lucida Console;strokeWidth=2;" vertex="1" parent="BHEHNerM98xJAAAJmL-u-2">
          <mxGeometry x="140" width="65" height="40" as="geometry">
            <mxRectangle width="65" height="40" as="alternateBounds" />
          </mxGeometry>
        </mxCell>
        <mxCell id="BHEHNerM98xJAAAJmL-u-8" value="&lt;span style=&quot;color: rgb(0, 0, 0); font-family: &amp;quot;Lucida Console&amp;quot;; font-size: 16px; font-style: normal; font-variant-ligatures: normal; font-variant-caps: normal; font-weight: 400; letter-spacing: normal; orphans: 2; text-align: center; text-indent: 0px; text-transform: none; widows: 2; word-spacing: 0px; -webkit-text-stroke-width: 0px; white-space: normal; background-color: rgb(251, 251, 251); text-decoration-thickness: initial; text-decoration-style: initial; text-decoration-color: initial; float: none; display: inline !important;&quot;&gt;Product Label 2&lt;/span&gt;" style="shape=partialRectangle;html=1;whiteSpace=wrap;connectable=0;strokeColor=inherit;overflow=hidden;fillColor=none;top=0;left=0;bottom=1;right=0;pointerEvents=1;fontSize=16;fontFamily=Lucida Console;strokeWidth=2;" vertex="1" parent="BHEHNerM98xJAAAJmL-u-2">
          <mxGeometry x="205" width="65" height="40" as="geometry">
            <mxRectangle width="65" height="40" as="alternateBounds" />
          </mxGeometry>
        </mxCell>
        <mxCell id="BHEHNerM98xJAAAJmL-u-9" value="Product Label 3" style="shape=partialRectangle;html=1;whiteSpace=wrap;connectable=0;strokeColor=inherit;overflow=hidden;fillColor=none;top=0;left=0;bottom=1;right=0;pointerEvents=1;fontSize=16;fontFamily=Lucida Console;strokeWidth=2;" vertex="1" parent="BHEHNerM98xJAAAJmL-u-2">
          <mxGeometry x="270" width="65" height="40" as="geometry">
            <mxRectangle width="65" height="40" as="alternateBounds" />
          </mxGeometry>
        </mxCell>
        <mxCell id="BHEHNerM98xJAAAJmL-u-10" value="Product Label 4" style="shape=partialRectangle;html=1;whiteSpace=wrap;connectable=0;strokeColor=inherit;overflow=hidden;fillColor=none;top=0;left=0;bottom=1;right=0;pointerEvents=1;fontSize=16;fontFamily=Lucida Console;strokeWidth=2;" vertex="1" parent="BHEHNerM98xJAAAJmL-u-2">
          <mxGeometry x="335" width="65" height="40" as="geometry">
            <mxRectangle width="65" height="40" as="alternateBounds" />
          </mxGeometry>
        </mxCell>
        <mxCell id="BHEHNerM98xJAAAJmL-u-80" value="&lt;span style=&quot;color: rgb(0, 0, 0); font-family: &amp;quot;Lucida Console&amp;quot;; font-size: 16px; font-style: normal; font-variant-ligatures: normal; font-variant-caps: normal; font-weight: 400; letter-spacing: normal; orphans: 2; text-align: center; text-indent: 0px; text-transform: none; widows: 2; word-spacing: 0px; -webkit-text-stroke-width: 0px; white-space: normal; background-color: rgb(251, 251, 251); text-decoration-thickness: initial; text-decoration-style: initial; text-decoration-color: initial; float: none; display: inline !important;&quot;&gt;Product Label 5&lt;/span&gt;" style="shape=partialRectangle;html=1;whiteSpace=wrap;connectable=0;strokeColor=inherit;overflow=hidden;fillColor=none;top=0;left=0;bottom=1;right=0;pointerEvents=1;fontSize=16;fontFamily=Lucida Console;strokeWidth=2;" vertex="1" parent="BHEHNerM98xJAAAJmL-u-2">
          <mxGeometry x="400" width="65" height="40" as="geometry">
            <mxRectangle width="65" height="40" as="alternateBounds" />
          </mxGeometry>
        </mxCell>
        <mxCell id="BHEHNerM98xJAAAJmL-u-74" value="&lt;span style=&quot;color: rgb(0, 0, 0); font-family: &amp;quot;Lucida Console&amp;quot;; font-size: 16px; font-style: normal; font-variant-ligatures: normal; font-variant-caps: normal; font-weight: 400; letter-spacing: normal; orphans: 2; text-align: center; text-indent: 0px; text-transform: none; widows: 2; word-spacing: 0px; -webkit-text-stroke-width: 0px; white-space: normal; background-color: rgb(251, 251, 251); text-decoration-thickness: initial; text-decoration-style: initial; text-decoration-color: initial; float: none; display: inline !important;&quot;&gt;Product Label 6&lt;/span&gt;" style="shape=partialRectangle;html=1;whiteSpace=wrap;connectable=0;strokeColor=inherit;overflow=hidden;fillColor=none;top=0;left=0;bottom=1;right=0;pointerEvents=1;fontSize=16;fontFamily=Lucida Console;strokeWidth=2;" vertex="1" parent="BHEHNerM98xJAAAJmL-u-2">
          <mxGeometry x="465" width="65" height="40" as="geometry">
            <mxRectangle width="65" height="40" as="alternateBounds" />
          </mxGeometry>
        </mxCell>
        <mxCell id="BHEHNerM98xJAAAJmL-u-11" value="..." style="shape=partialRectangle;html=1;whiteSpace=wrap;connectable=0;strokeColor=inherit;overflow=hidden;fillColor=none;top=0;left=0;bottom=1;right=0;pointerEvents=1;fontSize=16;fontFamily=Lucida Console;strokeWidth=2;" vertex="1" parent="BHEHNerM98xJAAAJmL-u-2">
          <mxGeometry x="530" width="40" height="40" as="geometry">
            <mxRectangle width="40" height="40" as="alternateBounds" />
          </mxGeometry>
        </mxCell>
        <mxCell id="BHEHNerM98xJAAAJmL-u-12" value="Product Label N" style="shape=partialRectangle;html=1;whiteSpace=wrap;connectable=0;strokeColor=inherit;overflow=hidden;fillColor=none;top=0;left=0;bottom=1;right=0;pointerEvents=1;fontSize=16;fontFamily=Lucida Console;strokeWidth=2;" vertex="1" parent="BHEHNerM98xJAAAJmL-u-2">
          <mxGeometry x="570" width="60" height="40" as="geometry">
            <mxRectangle width="60" height="40" as="alternateBounds" />
          </mxGeometry>
        </mxCell>
        <mxCell id="BHEHNerM98xJAAAJmL-u-13" value="" style="shape=tableRow;horizontal=0;startSize=0;swimlaneHead=0;swimlaneBody=0;strokeColor=inherit;top=0;left=0;bottom=0;right=0;collapsible=0;dropTarget=0;fillColor=none;points=[[0,0.5],[1,0.5]];portConstraint=eastwest;fontSize=16;fontFamily=Lucida Console;strokeWidth=2;" vertex="1" parent="BHEHNerM98xJAAAJmL-u-1">
          <mxGeometry y="40" width="630.0000000000002" height="30" as="geometry" />
        </mxCell>
        <mxCell id="BHEHNerM98xJAAAJmL-u-14" value="Company A" style="shape=partialRectangle;html=1;whiteSpace=wrap;connectable=0;strokeColor=inherit;overflow=hidden;fillColor=none;top=0;left=0;bottom=0;right=0;pointerEvents=1;fontSize=16;fontFamily=Lucida Console;strokeWidth=2;" vertex="1" parent="BHEHNerM98xJAAAJmL-u-13">
          <mxGeometry width="100" height="30" as="geometry">
            <mxRectangle width="100" height="30" as="alternateBounds" />
          </mxGeometry>
        </mxCell>
        <mxCell id="BHEHNerM98xJAAAJmL-u-17" value="..." style="shape=partialRectangle;html=1;whiteSpace=wrap;connectable=0;strokeColor=inherit;overflow=hidden;fillColor=none;top=0;left=0;bottom=0;right=0;pointerEvents=1;fontSize=16;fontFamily=Lucida Console;strokeWidth=2;" vertex="1" parent="BHEHNerM98xJAAAJmL-u-13">
          <mxGeometry x="100" width="40" height="30" as="geometry">
            <mxRectangle width="40" height="30" as="alternateBounds" />
          </mxGeometry>
        </mxCell>
        <mxCell id="BHEHNerM98xJAAAJmL-u-18" value="&lt;span style=&quot;color: rgb(0, 0, 0); font-size: 16px; font-style: normal; font-variant-ligatures: normal; font-variant-caps: normal; font-weight: 400; letter-spacing: normal; orphans: 2; text-align: center; text-indent: 0px; text-transform: none; widows: 2; word-spacing: 0px; -webkit-text-stroke-width: 0px; white-space: normal; background-color: rgb(251, 251, 251); text-decoration-thickness: initial; text-decoration-style: initial; text-decoration-color: initial; float: none; display: inline !important;&quot;&gt;0&lt;/span&gt;" style="shape=partialRectangle;html=1;whiteSpace=wrap;connectable=0;strokeColor=inherit;overflow=hidden;fillColor=none;top=0;left=0;bottom=0;right=0;pointerEvents=1;fontSize=16;fontFamily=Lucida Console;strokeWidth=2;" vertex="1" parent="BHEHNerM98xJAAAJmL-u-13">
          <mxGeometry x="140" width="65" height="30" as="geometry">
            <mxRectangle width="65" height="30" as="alternateBounds" />
          </mxGeometry>
        </mxCell>
        <mxCell id="BHEHNerM98xJAAAJmL-u-19" value="0" style="shape=partialRectangle;html=1;whiteSpace=wrap;connectable=0;strokeColor=inherit;overflow=hidden;fillColor=none;top=0;left=0;bottom=0;right=0;pointerEvents=1;fontSize=16;fontFamily=Lucida Console;strokeWidth=2;" vertex="1" parent="BHEHNerM98xJAAAJmL-u-13">
          <mxGeometry x="205" width="65" height="30" as="geometry">
            <mxRectangle width="65" height="30" as="alternateBounds" />
          </mxGeometry>
        </mxCell>
        <mxCell id="BHEHNerM98xJAAAJmL-u-20" value="0" style="shape=partialRectangle;html=1;whiteSpace=wrap;connectable=0;strokeColor=inherit;overflow=hidden;fillColor=none;top=0;left=0;bottom=0;right=0;pointerEvents=1;fontSize=16;fontFamily=Lucida Console;strokeWidth=2;" vertex="1" parent="BHEHNerM98xJAAAJmL-u-13">
          <mxGeometry x="270" width="65" height="30" as="geometry">
            <mxRectangle width="65" height="30" as="alternateBounds" />
          </mxGeometry>
        </mxCell>
        <mxCell id="BHEHNerM98xJAAAJmL-u-21" value="4" style="shape=partialRectangle;html=1;whiteSpace=wrap;connectable=0;strokeColor=inherit;overflow=hidden;fillColor=none;top=0;left=0;bottom=0;right=0;pointerEvents=1;fontSize=16;fontFamily=Lucida Console;strokeWidth=2;" vertex="1" parent="BHEHNerM98xJAAAJmL-u-13">
          <mxGeometry x="335" width="65" height="30" as="geometry">
            <mxRectangle width="65" height="30" as="alternateBounds" />
          </mxGeometry>
        </mxCell>
        <mxCell id="BHEHNerM98xJAAAJmL-u-81" value="1" style="shape=partialRectangle;html=1;whiteSpace=wrap;connectable=0;strokeColor=inherit;overflow=hidden;fillColor=none;top=0;left=0;bottom=0;right=0;pointerEvents=1;fontSize=16;fontFamily=Lucida Console;strokeWidth=2;" vertex="1" parent="BHEHNerM98xJAAAJmL-u-13">
          <mxGeometry x="400" width="65" height="30" as="geometry">
            <mxRectangle width="65" height="30" as="alternateBounds" />
          </mxGeometry>
        </mxCell>
        <mxCell id="BHEHNerM98xJAAAJmL-u-75" value="0" style="shape=partialRectangle;html=1;whiteSpace=wrap;connectable=0;strokeColor=inherit;overflow=hidden;fillColor=none;top=0;left=0;bottom=0;right=0;pointerEvents=1;fontSize=16;fontFamily=Lucida Console;strokeWidth=2;" vertex="1" parent="BHEHNerM98xJAAAJmL-u-13">
          <mxGeometry x="465" width="65" height="30" as="geometry">
            <mxRectangle width="65" height="30" as="alternateBounds" />
          </mxGeometry>
        </mxCell>
        <mxCell id="BHEHNerM98xJAAAJmL-u-22" value="..." style="shape=partialRectangle;html=1;whiteSpace=wrap;connectable=0;strokeColor=inherit;overflow=hidden;fillColor=none;top=0;left=0;bottom=0;right=0;pointerEvents=1;fontSize=16;fontFamily=Lucida Console;strokeWidth=2;" vertex="1" parent="BHEHNerM98xJAAAJmL-u-13">
          <mxGeometry x="530" width="40" height="30" as="geometry">
            <mxRectangle width="40" height="30" as="alternateBounds" />
          </mxGeometry>
        </mxCell>
        <mxCell id="BHEHNerM98xJAAAJmL-u-23" value="1" style="shape=partialRectangle;html=1;whiteSpace=wrap;connectable=0;strokeColor=inherit;overflow=hidden;fillColor=none;top=0;left=0;bottom=0;right=0;pointerEvents=1;fontSize=16;fontFamily=Lucida Console;strokeWidth=2;" vertex="1" parent="BHEHNerM98xJAAAJmL-u-13">
          <mxGeometry x="570" width="60" height="30" as="geometry">
            <mxRectangle width="60" height="30" as="alternateBounds" />
          </mxGeometry>
        </mxCell>
        <mxCell id="BHEHNerM98xJAAAJmL-u-24" value="" style="shape=tableRow;horizontal=0;startSize=0;swimlaneHead=0;swimlaneBody=0;strokeColor=inherit;top=0;left=0;bottom=0;right=0;collapsible=0;dropTarget=0;fillColor=none;points=[[0,0.5],[1,0.5]];portConstraint=eastwest;fontSize=16;fontFamily=Lucida Console;strokeWidth=2;" vertex="1" parent="BHEHNerM98xJAAAJmL-u-1">
          <mxGeometry y="70" width="630.0000000000002" height="30" as="geometry" />
        </mxCell>
        <mxCell id="BHEHNerM98xJAAAJmL-u-25" value="Company B" style="shape=partialRectangle;html=1;whiteSpace=wrap;connectable=0;strokeColor=inherit;overflow=hidden;fillColor=none;top=0;left=0;bottom=0;right=0;pointerEvents=1;fontSize=16;fontFamily=Lucida Console;strokeWidth=2;" vertex="1" parent="BHEHNerM98xJAAAJmL-u-24">
          <mxGeometry width="100" height="30" as="geometry">
            <mxRectangle width="100" height="30" as="alternateBounds" />
          </mxGeometry>
        </mxCell>
        <mxCell id="BHEHNerM98xJAAAJmL-u-28" value="..." style="shape=partialRectangle;html=1;whiteSpace=wrap;connectable=0;strokeColor=inherit;overflow=hidden;fillColor=none;top=0;left=0;bottom=0;right=0;pointerEvents=1;fontSize=16;fontFamily=Lucida Console;strokeWidth=2;" vertex="1" parent="BHEHNerM98xJAAAJmL-u-24">
          <mxGeometry x="100" width="40" height="30" as="geometry">
            <mxRectangle width="40" height="30" as="alternateBounds" />
          </mxGeometry>
        </mxCell>
        <mxCell id="BHEHNerM98xJAAAJmL-u-29" value="&lt;span style=&quot;color: rgb(0, 0, 0); font-size: 16px; font-style: normal; font-variant-ligatures: normal; font-variant-caps: normal; font-weight: 400; letter-spacing: normal; orphans: 2; text-align: center; text-indent: 0px; text-transform: none; widows: 2; word-spacing: 0px; -webkit-text-stroke-width: 0px; white-space: normal; background-color: rgb(251, 251, 251); text-decoration-thickness: initial; text-decoration-style: initial; text-decoration-color: initial; float: none; display: inline !important;&quot;&gt;0&lt;/span&gt;" style="shape=partialRectangle;html=1;whiteSpace=wrap;connectable=0;strokeColor=inherit;overflow=hidden;fillColor=none;top=0;left=0;bottom=0;right=0;pointerEvents=1;fontSize=16;fontFamily=Lucida Console;strokeWidth=2;" vertex="1" parent="BHEHNerM98xJAAAJmL-u-24">
          <mxGeometry x="140" width="65" height="30" as="geometry">
            <mxRectangle width="65" height="30" as="alternateBounds" />
          </mxGeometry>
        </mxCell>
        <mxCell id="BHEHNerM98xJAAAJmL-u-30" value="12" style="shape=partialRectangle;html=1;whiteSpace=wrap;connectable=0;strokeColor=inherit;overflow=hidden;fillColor=none;top=0;left=0;bottom=0;right=0;pointerEvents=1;fontSize=16;fontFamily=Lucida Console;strokeWidth=2;" vertex="1" parent="BHEHNerM98xJAAAJmL-u-24">
          <mxGeometry x="205" width="65" height="30" as="geometry">
            <mxRectangle width="65" height="30" as="alternateBounds" />
          </mxGeometry>
        </mxCell>
        <mxCell id="BHEHNerM98xJAAAJmL-u-31" value="1" style="shape=partialRectangle;html=1;whiteSpace=wrap;connectable=0;strokeColor=inherit;overflow=hidden;fillColor=none;top=0;left=0;bottom=0;right=0;pointerEvents=1;fontSize=16;fontFamily=Lucida Console;strokeWidth=2;" vertex="1" parent="BHEHNerM98xJAAAJmL-u-24">
          <mxGeometry x="270" width="65" height="30" as="geometry">
            <mxRectangle width="65" height="30" as="alternateBounds" />
          </mxGeometry>
        </mxCell>
        <mxCell id="BHEHNerM98xJAAAJmL-u-32" value="0" style="shape=partialRectangle;html=1;whiteSpace=wrap;connectable=0;strokeColor=inherit;overflow=hidden;fillColor=none;top=0;left=0;bottom=0;right=0;pointerEvents=1;fontSize=16;fontFamily=Lucida Console;strokeWidth=2;" vertex="1" parent="BHEHNerM98xJAAAJmL-u-24">
          <mxGeometry x="335" width="65" height="30" as="geometry">
            <mxRectangle width="65" height="30" as="alternateBounds" />
          </mxGeometry>
        </mxCell>
        <mxCell id="BHEHNerM98xJAAAJmL-u-82" value="2" style="shape=partialRectangle;html=1;whiteSpace=wrap;connectable=0;strokeColor=inherit;overflow=hidden;fillColor=none;top=0;left=0;bottom=0;right=0;pointerEvents=1;fontSize=16;fontFamily=Lucida Console;strokeWidth=2;" vertex="1" parent="BHEHNerM98xJAAAJmL-u-24">
          <mxGeometry x="400" width="65" height="30" as="geometry">
            <mxRectangle width="65" height="30" as="alternateBounds" />
          </mxGeometry>
        </mxCell>
        <mxCell id="BHEHNerM98xJAAAJmL-u-76" value="1" style="shape=partialRectangle;html=1;whiteSpace=wrap;connectable=0;strokeColor=inherit;overflow=hidden;fillColor=none;top=0;left=0;bottom=0;right=0;pointerEvents=1;fontSize=16;fontFamily=Lucida Console;strokeWidth=2;" vertex="1" parent="BHEHNerM98xJAAAJmL-u-24">
          <mxGeometry x="465" width="65" height="30" as="geometry">
            <mxRectangle width="65" height="30" as="alternateBounds" />
          </mxGeometry>
        </mxCell>
        <mxCell id="BHEHNerM98xJAAAJmL-u-33" value="..." style="shape=partialRectangle;html=1;whiteSpace=wrap;connectable=0;strokeColor=inherit;overflow=hidden;fillColor=none;top=0;left=0;bottom=0;right=0;pointerEvents=1;fontSize=16;fontFamily=Lucida Console;strokeWidth=2;" vertex="1" parent="BHEHNerM98xJAAAJmL-u-24">
          <mxGeometry x="530" width="40" height="30" as="geometry">
            <mxRectangle width="40" height="30" as="alternateBounds" />
          </mxGeometry>
        </mxCell>
        <mxCell id="BHEHNerM98xJAAAJmL-u-34" value="0" style="shape=partialRectangle;html=1;whiteSpace=wrap;connectable=0;strokeColor=inherit;overflow=hidden;fillColor=none;top=0;left=0;bottom=0;right=0;pointerEvents=1;fontSize=16;fontFamily=Lucida Console;strokeWidth=2;" vertex="1" parent="BHEHNerM98xJAAAJmL-u-24">
          <mxGeometry x="570" width="60" height="30" as="geometry">
            <mxRectangle width="60" height="30" as="alternateBounds" />
          </mxGeometry>
        </mxCell>
        <mxCell id="BHEHNerM98xJAAAJmL-u-57" style="shape=tableRow;horizontal=0;startSize=0;swimlaneHead=0;swimlaneBody=0;strokeColor=inherit;top=0;left=0;bottom=0;right=0;collapsible=0;dropTarget=0;fillColor=none;points=[[0,0.5],[1,0.5]];portConstraint=eastwest;fontSize=16;fontFamily=Lucida Console;strokeWidth=2;" vertex="1" parent="BHEHNerM98xJAAAJmL-u-1">
          <mxGeometry y="100" width="630.0000000000002" height="30" as="geometry" />
        </mxCell>
        <mxCell id="BHEHNerM98xJAAAJmL-u-58" value="Company C" style="shape=partialRectangle;html=1;whiteSpace=wrap;connectable=0;strokeColor=inherit;overflow=hidden;fillColor=none;top=0;left=0;bottom=0;right=0;pointerEvents=1;fontSize=16;fontFamily=Lucida Console;strokeWidth=2;" vertex="1" parent="BHEHNerM98xJAAAJmL-u-57">
          <mxGeometry width="100" height="30" as="geometry">
            <mxRectangle width="100" height="30" as="alternateBounds" />
          </mxGeometry>
        </mxCell>
        <mxCell id="BHEHNerM98xJAAAJmL-u-61" value="..." style="shape=partialRectangle;html=1;whiteSpace=wrap;connectable=0;strokeColor=inherit;overflow=hidden;fillColor=none;top=0;left=0;bottom=0;right=0;pointerEvents=1;fontSize=16;fontFamily=Lucida Console;strokeWidth=2;" vertex="1" parent="BHEHNerM98xJAAAJmL-u-57">
          <mxGeometry x="100" width="40" height="30" as="geometry">
            <mxRectangle width="40" height="30" as="alternateBounds" />
          </mxGeometry>
        </mxCell>
        <mxCell id="BHEHNerM98xJAAAJmL-u-62" value="1" style="shape=partialRectangle;html=1;whiteSpace=wrap;connectable=0;strokeColor=inherit;overflow=hidden;fillColor=none;top=0;left=0;bottom=0;right=0;pointerEvents=1;fontSize=16;fontFamily=Lucida Console;strokeWidth=2;" vertex="1" parent="BHEHNerM98xJAAAJmL-u-57">
          <mxGeometry x="140" width="65" height="30" as="geometry">
            <mxRectangle width="65" height="30" as="alternateBounds" />
          </mxGeometry>
        </mxCell>
        <mxCell id="BHEHNerM98xJAAAJmL-u-63" value="4" style="shape=partialRectangle;html=1;whiteSpace=wrap;connectable=0;strokeColor=inherit;overflow=hidden;fillColor=none;top=0;left=0;bottom=0;right=0;pointerEvents=1;fontSize=16;fontFamily=Lucida Console;strokeWidth=2;" vertex="1" parent="BHEHNerM98xJAAAJmL-u-57">
          <mxGeometry x="205" width="65" height="30" as="geometry">
            <mxRectangle width="65" height="30" as="alternateBounds" />
          </mxGeometry>
        </mxCell>
        <mxCell id="BHEHNerM98xJAAAJmL-u-64" value="5" style="shape=partialRectangle;html=1;whiteSpace=wrap;connectable=0;strokeColor=inherit;overflow=hidden;fillColor=none;top=0;left=0;bottom=0;right=0;pointerEvents=1;fontSize=16;fontFamily=Lucida Console;strokeWidth=2;" vertex="1" parent="BHEHNerM98xJAAAJmL-u-57">
          <mxGeometry x="270" width="65" height="30" as="geometry">
            <mxRectangle width="65" height="30" as="alternateBounds" />
          </mxGeometry>
        </mxCell>
        <mxCell id="BHEHNerM98xJAAAJmL-u-65" value="7" style="shape=partialRectangle;html=1;whiteSpace=wrap;connectable=0;strokeColor=inherit;overflow=hidden;fillColor=none;top=0;left=0;bottom=0;right=0;pointerEvents=1;fontSize=16;fontFamily=Lucida Console;strokeWidth=2;" vertex="1" parent="BHEHNerM98xJAAAJmL-u-57">
          <mxGeometry x="335" width="65" height="30" as="geometry">
            <mxRectangle width="65" height="30" as="alternateBounds" />
          </mxGeometry>
        </mxCell>
        <mxCell id="BHEHNerM98xJAAAJmL-u-83" value="1" style="shape=partialRectangle;html=1;whiteSpace=wrap;connectable=0;strokeColor=inherit;overflow=hidden;fillColor=none;top=0;left=0;bottom=0;right=0;pointerEvents=1;fontSize=16;fontFamily=Lucida Console;strokeWidth=2;" vertex="1" parent="BHEHNerM98xJAAAJmL-u-57">
          <mxGeometry x="400" width="65" height="30" as="geometry">
            <mxRectangle width="65" height="30" as="alternateBounds" />
          </mxGeometry>
        </mxCell>
        <mxCell id="BHEHNerM98xJAAAJmL-u-77" value="0" style="shape=partialRectangle;html=1;whiteSpace=wrap;connectable=0;strokeColor=inherit;overflow=hidden;fillColor=none;top=0;left=0;bottom=0;right=0;pointerEvents=1;fontSize=16;fontFamily=Lucida Console;strokeWidth=2;" vertex="1" parent="BHEHNerM98xJAAAJmL-u-57">
          <mxGeometry x="465" width="65" height="30" as="geometry">
            <mxRectangle width="65" height="30" as="alternateBounds" />
          </mxGeometry>
        </mxCell>
        <mxCell id="BHEHNerM98xJAAAJmL-u-66" style="shape=partialRectangle;html=1;whiteSpace=wrap;connectable=0;strokeColor=inherit;overflow=hidden;fillColor=none;top=0;left=0;bottom=0;right=0;pointerEvents=1;fontSize=16;fontFamily=Lucida Console;strokeWidth=2;" vertex="1" parent="BHEHNerM98xJAAAJmL-u-57">
          <mxGeometry x="530" width="40" height="30" as="geometry">
            <mxRectangle width="40" height="30" as="alternateBounds" />
          </mxGeometry>
        </mxCell>
        <mxCell id="BHEHNerM98xJAAAJmL-u-67" value="0" style="shape=partialRectangle;html=1;whiteSpace=wrap;connectable=0;strokeColor=inherit;overflow=hidden;fillColor=none;top=0;left=0;bottom=0;right=0;pointerEvents=1;fontSize=16;fontFamily=Lucida Console;strokeWidth=2;" vertex="1" parent="BHEHNerM98xJAAAJmL-u-57">
          <mxGeometry x="570" width="60" height="30" as="geometry">
            <mxRectangle width="60" height="30" as="alternateBounds" />
          </mxGeometry>
        </mxCell>
        <mxCell id="BHEHNerM98xJAAAJmL-u-46" style="shape=tableRow;horizontal=0;startSize=0;swimlaneHead=0;swimlaneBody=0;strokeColor=inherit;top=0;left=0;bottom=0;right=0;collapsible=0;dropTarget=0;fillColor=none;points=[[0,0.5],[1,0.5]];portConstraint=eastwest;fontSize=16;fontFamily=Lucida Console;strokeWidth=2;" vertex="1" parent="BHEHNerM98xJAAAJmL-u-1">
          <mxGeometry y="130" width="630.0000000000002" height="30" as="geometry" />
        </mxCell>
        <mxCell id="BHEHNerM98xJAAAJmL-u-47" value="Company D" style="shape=partialRectangle;html=1;whiteSpace=wrap;connectable=0;strokeColor=inherit;overflow=hidden;fillColor=none;top=0;left=0;bottom=0;right=0;pointerEvents=1;fontSize=16;fontFamily=Lucida Console;strokeWidth=2;" vertex="1" parent="BHEHNerM98xJAAAJmL-u-46">
          <mxGeometry width="100" height="30" as="geometry">
            <mxRectangle width="100" height="30" as="alternateBounds" />
          </mxGeometry>
        </mxCell>
        <mxCell id="BHEHNerM98xJAAAJmL-u-50" value="..." style="shape=partialRectangle;html=1;whiteSpace=wrap;connectable=0;strokeColor=inherit;overflow=hidden;fillColor=none;top=0;left=0;bottom=0;right=0;pointerEvents=1;fontSize=16;fontFamily=Lucida Console;strokeWidth=2;" vertex="1" parent="BHEHNerM98xJAAAJmL-u-46">
          <mxGeometry x="100" width="40" height="30" as="geometry">
            <mxRectangle width="40" height="30" as="alternateBounds" />
          </mxGeometry>
        </mxCell>
        <mxCell id="BHEHNerM98xJAAAJmL-u-51" value="0" style="shape=partialRectangle;html=1;whiteSpace=wrap;connectable=0;strokeColor=inherit;overflow=hidden;fillColor=none;top=0;left=0;bottom=0;right=0;pointerEvents=1;fontSize=16;fontFamily=Lucida Console;strokeWidth=2;" vertex="1" parent="BHEHNerM98xJAAAJmL-u-46">
          <mxGeometry x="140" width="65" height="30" as="geometry">
            <mxRectangle width="65" height="30" as="alternateBounds" />
          </mxGeometry>
        </mxCell>
        <mxCell id="BHEHNerM98xJAAAJmL-u-52" value="3" style="shape=partialRectangle;html=1;whiteSpace=wrap;connectable=0;strokeColor=inherit;overflow=hidden;fillColor=none;top=0;left=0;bottom=0;right=0;pointerEvents=1;fontSize=16;fontFamily=Lucida Console;strokeWidth=2;" vertex="1" parent="BHEHNerM98xJAAAJmL-u-46">
          <mxGeometry x="205" width="65" height="30" as="geometry">
            <mxRectangle width="65" height="30" as="alternateBounds" />
          </mxGeometry>
        </mxCell>
        <mxCell id="BHEHNerM98xJAAAJmL-u-53" value="1" style="shape=partialRectangle;html=1;whiteSpace=wrap;connectable=0;strokeColor=inherit;overflow=hidden;fillColor=none;top=0;left=0;bottom=0;right=0;pointerEvents=1;fontSize=16;fontFamily=Lucida Console;strokeWidth=2;" vertex="1" parent="BHEHNerM98xJAAAJmL-u-46">
          <mxGeometry x="270" width="65" height="30" as="geometry">
            <mxRectangle width="65" height="30" as="alternateBounds" />
          </mxGeometry>
        </mxCell>
        <mxCell id="BHEHNerM98xJAAAJmL-u-54" value="0" style="shape=partialRectangle;html=1;whiteSpace=wrap;connectable=0;strokeColor=inherit;overflow=hidden;fillColor=none;top=0;left=0;bottom=0;right=0;pointerEvents=1;fontSize=16;fontFamily=Lucida Console;strokeWidth=2;" vertex="1" parent="BHEHNerM98xJAAAJmL-u-46">
          <mxGeometry x="335" width="65" height="30" as="geometry">
            <mxRectangle width="65" height="30" as="alternateBounds" />
          </mxGeometry>
        </mxCell>
        <mxCell id="BHEHNerM98xJAAAJmL-u-84" value="0" style="shape=partialRectangle;html=1;whiteSpace=wrap;connectable=0;strokeColor=inherit;overflow=hidden;fillColor=none;top=0;left=0;bottom=0;right=0;pointerEvents=1;fontSize=16;fontFamily=Lucida Console;strokeWidth=2;" vertex="1" parent="BHEHNerM98xJAAAJmL-u-46">
          <mxGeometry x="400" width="65" height="30" as="geometry">
            <mxRectangle width="65" height="30" as="alternateBounds" />
          </mxGeometry>
        </mxCell>
        <mxCell id="BHEHNerM98xJAAAJmL-u-78" value="1" style="shape=partialRectangle;html=1;whiteSpace=wrap;connectable=0;strokeColor=inherit;overflow=hidden;fillColor=none;top=0;left=0;bottom=0;right=0;pointerEvents=1;fontSize=16;fontFamily=Lucida Console;strokeWidth=2;" vertex="1" parent="BHEHNerM98xJAAAJmL-u-46">
          <mxGeometry x="465" width="65" height="30" as="geometry">
            <mxRectangle width="65" height="30" as="alternateBounds" />
          </mxGeometry>
        </mxCell>
        <mxCell id="BHEHNerM98xJAAAJmL-u-55" style="shape=partialRectangle;html=1;whiteSpace=wrap;connectable=0;strokeColor=inherit;overflow=hidden;fillColor=none;top=0;left=0;bottom=0;right=0;pointerEvents=1;fontSize=16;fontFamily=Lucida Console;strokeWidth=2;" vertex="1" parent="BHEHNerM98xJAAAJmL-u-46">
          <mxGeometry x="530" width="40" height="30" as="geometry">
            <mxRectangle width="40" height="30" as="alternateBounds" />
          </mxGeometry>
        </mxCell>
        <mxCell id="BHEHNerM98xJAAAJmL-u-56" value="0" style="shape=partialRectangle;html=1;whiteSpace=wrap;connectable=0;strokeColor=inherit;overflow=hidden;fillColor=none;top=0;left=0;bottom=0;right=0;pointerEvents=1;fontSize=16;fontFamily=Lucida Console;strokeWidth=2;" vertex="1" parent="BHEHNerM98xJAAAJmL-u-46">
          <mxGeometry x="570" width="60" height="30" as="geometry">
            <mxRectangle width="60" height="30" as="alternateBounds" />
          </mxGeometry>
        </mxCell>
        <mxCell id="BHEHNerM98xJAAAJmL-u-35" style="shape=tableRow;horizontal=0;startSize=0;swimlaneHead=0;swimlaneBody=0;strokeColor=inherit;top=0;left=0;bottom=0;right=0;collapsible=0;dropTarget=0;fillColor=none;points=[[0,0.5],[1,0.5]];portConstraint=eastwest;fontSize=16;fontFamily=Lucida Console;strokeWidth=2;" vertex="1" parent="BHEHNerM98xJAAAJmL-u-1">
          <mxGeometry y="160" width="630.0000000000002" height="30" as="geometry" />
        </mxCell>
        <mxCell id="BHEHNerM98xJAAAJmL-u-36" value="..." style="shape=partialRectangle;html=1;whiteSpace=wrap;connectable=0;strokeColor=inherit;overflow=hidden;fillColor=none;top=0;left=0;bottom=0;right=0;pointerEvents=1;fontSize=16;fontFamily=Lucida Console;strokeWidth=2;" vertex="1" parent="BHEHNerM98xJAAAJmL-u-35">
          <mxGeometry width="100" height="30" as="geometry">
            <mxRectangle width="100" height="30" as="alternateBounds" />
          </mxGeometry>
        </mxCell>
        <mxCell id="BHEHNerM98xJAAAJmL-u-39" value="..." style="shape=partialRectangle;html=1;whiteSpace=wrap;connectable=0;strokeColor=inherit;overflow=hidden;fillColor=none;top=0;left=0;bottom=0;right=0;pointerEvents=1;fontSize=16;fontFamily=Lucida Console;strokeWidth=2;" vertex="1" parent="BHEHNerM98xJAAAJmL-u-35">
          <mxGeometry x="100" width="40" height="30" as="geometry">
            <mxRectangle width="40" height="30" as="alternateBounds" />
          </mxGeometry>
        </mxCell>
        <mxCell id="BHEHNerM98xJAAAJmL-u-40" value="..." style="shape=partialRectangle;html=1;whiteSpace=wrap;connectable=0;strokeColor=inherit;overflow=hidden;fillColor=none;top=0;left=0;bottom=0;right=0;pointerEvents=1;fontSize=16;fontFamily=Lucida Console;strokeWidth=2;" vertex="1" parent="BHEHNerM98xJAAAJmL-u-35">
          <mxGeometry x="140" width="65" height="30" as="geometry">
            <mxRectangle width="65" height="30" as="alternateBounds" />
          </mxGeometry>
        </mxCell>
        <mxCell id="BHEHNerM98xJAAAJmL-u-41" value="..." style="shape=partialRectangle;html=1;whiteSpace=wrap;connectable=0;strokeColor=inherit;overflow=hidden;fillColor=none;top=0;left=0;bottom=0;right=0;pointerEvents=1;fontSize=16;fontFamily=Lucida Console;strokeWidth=2;" vertex="1" parent="BHEHNerM98xJAAAJmL-u-35">
          <mxGeometry x="205" width="65" height="30" as="geometry">
            <mxRectangle width="65" height="30" as="alternateBounds" />
          </mxGeometry>
        </mxCell>
        <mxCell id="BHEHNerM98xJAAAJmL-u-42" value="..." style="shape=partialRectangle;html=1;whiteSpace=wrap;connectable=0;strokeColor=inherit;overflow=hidden;fillColor=none;top=0;left=0;bottom=0;right=0;pointerEvents=1;fontSize=16;fontFamily=Lucida Console;strokeWidth=2;" vertex="1" parent="BHEHNerM98xJAAAJmL-u-35">
          <mxGeometry x="270" width="65" height="30" as="geometry">
            <mxRectangle width="65" height="30" as="alternateBounds" />
          </mxGeometry>
        </mxCell>
        <mxCell id="BHEHNerM98xJAAAJmL-u-43" value="..." style="shape=partialRectangle;html=1;whiteSpace=wrap;connectable=0;strokeColor=inherit;overflow=hidden;fillColor=none;top=0;left=0;bottom=0;right=0;pointerEvents=1;fontSize=16;fontFamily=Lucida Console;strokeWidth=2;" vertex="1" parent="BHEHNerM98xJAAAJmL-u-35">
          <mxGeometry x="335" width="65" height="30" as="geometry">
            <mxRectangle width="65" height="30" as="alternateBounds" />
          </mxGeometry>
        </mxCell>
        <mxCell id="BHEHNerM98xJAAAJmL-u-85" value="..." style="shape=partialRectangle;html=1;whiteSpace=wrap;connectable=0;strokeColor=inherit;overflow=hidden;fillColor=none;top=0;left=0;bottom=0;right=0;pointerEvents=1;fontSize=16;fontFamily=Lucida Console;strokeWidth=2;" vertex="1" parent="BHEHNerM98xJAAAJmL-u-35">
          <mxGeometry x="400" width="65" height="30" as="geometry">
            <mxRectangle width="65" height="30" as="alternateBounds" />
          </mxGeometry>
        </mxCell>
        <mxCell id="BHEHNerM98xJAAAJmL-u-79" value="..." style="shape=partialRectangle;html=1;whiteSpace=wrap;connectable=0;strokeColor=inherit;overflow=hidden;fillColor=none;top=0;left=0;bottom=0;right=0;pointerEvents=1;fontSize=16;fontFamily=Lucida Console;strokeWidth=2;" vertex="1" parent="BHEHNerM98xJAAAJmL-u-35">
          <mxGeometry x="465" width="65" height="30" as="geometry">
            <mxRectangle width="65" height="30" as="alternateBounds" />
          </mxGeometry>
        </mxCell>
        <mxCell id="BHEHNerM98xJAAAJmL-u-44" value="..." style="shape=partialRectangle;html=1;whiteSpace=wrap;connectable=0;strokeColor=inherit;overflow=hidden;fillColor=none;top=0;left=0;bottom=0;right=0;pointerEvents=1;fontSize=16;fontFamily=Lucida Console;strokeWidth=2;" vertex="1" parent="BHEHNerM98xJAAAJmL-u-35">
          <mxGeometry x="530" width="40" height="30" as="geometry">
            <mxRectangle width="40" height="30" as="alternateBounds" />
          </mxGeometry>
        </mxCell>
        <mxCell id="BHEHNerM98xJAAAJmL-u-45" value="..." style="shape=partialRectangle;html=1;whiteSpace=wrap;connectable=0;strokeColor=inherit;overflow=hidden;fillColor=none;top=0;left=0;bottom=0;right=0;pointerEvents=1;fontSize=16;fontFamily=Lucida Console;strokeWidth=2;" vertex="1" parent="BHEHNerM98xJAAAJmL-u-35">
          <mxGeometry x="570" width="60" height="30" as="geometry">
            <mxRectangle width="60" height="30" as="alternateBounds" />
          </mxGeometry>
        </mxCell>
      </root>
    </mxGraphModel>
  </diagram>
</mxfile>
